<?xml version="1.0" encoding="iso-8859-1"?>
<!-- Uploaded to: SVG Repo, www.svgrepo.com, Generator: SVG Repo Mixer Tools -->
<svg height="800px" width="800px" version="1.1" id="Layer_1" xmlns="http://www.w3.org/2000/svg" xmlns:xlink="http://www.w3.org/1999/xlink" 
	 viewBox="0 0 511.988 511.988" xml:space="preserve">
<path style="fill:#7F4545;" d="M362.646,383.988c0,11.781-9.546,21.344-21.326,21.344H170.653c-11.781,0-21.327-9.562-21.327-21.344
	V21.343C149.326,9.562,158.872,0,170.653,0H341.32c11.78,0,21.326,9.562,21.326,21.343L362.646,383.988L362.646,383.988z"/>
<polygon style="fill:#5D9CEC;" points="373.318,479.985 138.654,479.985 138.654,149.339 373.318,213.337 "/>
<path style="fill:#4A89DC;" d="M383.99,501.329l-10.672-42.671H138.654l-10.656,42.671h10.656c0,2.718,1.047,5.452,3.125,7.53
	c4.172,4.172,10.921,4.172,15.093,0c2.078-2.078,3.109-4.812,3.125-7.53h21.328c0,2.718,1.031,5.452,3.125,7.53
	c4.156,4.172,10.922,4.172,15.078,0c2.078-2.078,3.125-4.812,3.125-7.53h21.343c0,2.718,1.031,5.452,3.109,7.53
	c4.172,4.172,10.921,4.172,15.093,0c2.078-2.078,3.125-4.812,3.125-7.53h21.328c0,2.718,1.047,5.452,3.125,7.53
	c4.172,4.172,10.921,4.172,15.093,0c2.078-2.078,3.109-4.812,3.125-7.53h21.327c0,2.718,1.031,5.452,3.125,7.53
	c4.156,4.172,10.922,4.172,15.078,0c2.078-2.078,3.125-4.812,3.125-7.53h21.343c0,2.718,1.031,5.452,3.109,7.53
	c4.172,4.172,10.921,4.172,15.093,0c2.078-2.078,3.125-4.812,3.125-7.53H383.99z"/>
<g>
	<path style="fill:#602B2B;" d="M202.652,85.341L202.652,85.341H309.32l0,0c2.734,0,5.453-1.047,7.547-3.125
		c4.156-4.172,4.156-10.922,0-15.094c-2.094-2.078-4.828-3.125-7.562-3.125H202.652c-2.718,0-5.453,1.047-7.546,3.125
		c-4.156,4.172-4.156,10.922,0,15.094C197.199,84.294,199.918,85.341,202.652,85.341z"/>
	<path style="fill:#602B2B;" d="M309.32,127.996L309.32,127.996H202.652l0,0c-2.734,0-5.453,1.047-7.546,3.125
		c-4.156,4.172-4.156,10.922,0,15.094c2.094,2.078,4.828,3.125,7.546,3.125h106.653c2.734,0,5.469-1.047,7.562-3.125
		c4.156-4.172,4.156-10.922,0-15.094C314.773,129.043,312.055,127.996,309.32,127.996z"/>
</g>
<polygon style="fill:#F5F7FA;" points="202.652,166.792 202.636,394.676 309.32,394.66 309.32,195.885 "/>
<path style="fill:#434A54;" d="M245.307,178.417v152.245h0.016c0,2.734,1.031,5.453,3.125,7.547c4.156,4.155,10.922,4.155,15.078,0
	c2.125-2.141,3.172-4.938,3.125-7.734V184.244L245.307,178.417z"/>
</svg>